<svg id="Capa_1" data-name="Capa 1" xmlns="http://www.w3.org/2000/svg" viewBox="0 0 887.12 500.9"><defs><style>.cls-1{fill:#e7f3fe;}.cls-2{fill:#75a1de;}.cls-3{fill:#f09959;}.cls-4{fill:#e38540;}.cls-5{fill:#a2dff2;}.cls-6{fill:#96cfe0;}.cls-7{fill:#fff;}.cls-8{fill:#6791c9;}.cls-9{fill:#95bef5;}.cls-10,.cls-11{fill:#2e5b9a;}.cls-11{opacity:0.5;}.cls-12{fill:#9ec8ff;}.cls-13{fill:#f39892;}.cls-14{fill:#9cd499;}.cls-15{fill:#74b570;}</style></defs><path class="cls-1" d="M844.54,612.92s184.92-333,46.5-410.73c-110.43-62-207.3,46.49-325.49-29.07-152.47-97.48-268-32.22-350.67,89.12-62,91.06-94.83,150-125.93,220.87C40.51,593.54,143.2,618.73,143.2,618.73Z" transform="translate(-75.97 -125.94)"/><path class="cls-2" d="M333.62,615.09l84.3.15a2.92,2.92,0,0,0,.26-5.63l-84-7.54c-6.82-.61-13,2-13.2,5.92S326.77,615.08,333.62,615.09Z" transform="translate(-75.97 -125.94)"/><path class="cls-3" d="M442.77,603.15c-2.91-.72-8.23-16.62-8.23-16.62s60.87-20.53,86.7-33.91l36,41.61C511,605.74,444.93,603.69,442.77,603.15Z" transform="translate(-75.97 -125.94)"/><path class="cls-3" d="M452.13,580.23c-15,3.87-38.81-5.81-43.27-4.85s-23.08,10.66-27.53,15.5-20.25,19.86-17.41,20.83,22.67-13.56,25.1-14,3.64,2.9,23.49,6.78,43.82-6.14,43.82-6.14Z" transform="translate(-75.97 -125.94)"/><path class="cls-4" d="M428.3,595.24s-23.08-5.81-25.92-4.84-20,4.84-32,18.41c11.34-3.4,27.54-4.36,32-4.36S428.3,595.24,428.3,595.24Z" transform="translate(-75.97 -125.94)"/><path class="cls-3" d="M422.78,585.56c-9.85,12.59-34.87,16.46-38.67,20.82s9.12,2.51,15.93,1.94c17.32-1.45,29.43,5.57,43.46,1.21s17.19-14.77,17.19-14.77Z" transform="translate(-75.97 -125.94)"/><path class="cls-5" d="M607.5,362c44.45,21.84,64.8,37.82,78.6,97.4s14.53,116.23,7.26,158.37c-49.34,1.43-190.77,6.76-190.77,6.76s2.69-86.51,17.14-155c13.81-65.39,33.42-90.82,50.13-102.44S607.5,362,607.5,362Z" transform="translate(-75.97 -125.94)"/><path class="cls-6" d="M596.74,564.75c15.94-16,11.62-124.23,37.78-172.91l48.67,90.81,14.72,75.56a342.38,342.38,0,0,1-4.55,59.57,1.93,1.93,0,0,1-2.08,1.59c-40.18-3.52-42.42-21-170.77-40.36C517.48,578.55,585.9,575.62,596.74,564.75Z" transform="translate(-75.97 -125.94)"/><path class="cls-7" d="M611.73,362c5.63,13.14-5.81,30.35-23.9,43.91s-29.06,6.14-28.09-4.52,1.94-22,6.14-28.74,37.78-12.59,37.78-12.59S610.76,359.77,611.73,362Z" transform="translate(-75.97 -125.94)"/><path class="cls-3" d="M590.26,296.15,607.5,362a15.09,15.09,0,0,1-1.26,13.36c-7,11.34-22.12,33.13-32.94,30.25-14.53-3.88-4.84-31-4.84-31l-19.37-68.3Z" transform="translate(-75.97 -125.94)"/><path class="cls-4" d="M563.84,300.22l17.21-7,5.17,13.44c-2.37,57.24-9.66,80.6-20.86,87.11-.6-8.82,3.1-19.18,3.1-19.18l-14.05-50.86Z" transform="translate(-75.97 -125.94)"/><path class="cls-3" d="M516,326c3.36,22.73,12.31,42.21,28.55,39.81s44.12-21.42,40.76-44.15-39.81-50-56-47.56S512.67,303.29,516,326Z" transform="translate(-75.97 -125.94)"/><path class="cls-3" d="M639.6,411.46c-1.29-5.17,19.39-8.25,22.68-4.07,32.53,41.37,83.13,153.14,71.77,173.34-13.08,23.25-154-7.28-156.87-8s5.08-22.52,5.08-22.52,79,1.45,92.27-7.51C633.12,465,649.41,450.58,639.6,411.46Z" transform="translate(-75.97 -125.94)"/><path class="cls-5" d="M647.59,388.21C681.77,403.53,718.79,503,718.79,503s-8.72,2.17-37,11.62c-11.78,3.93-23.19,7.57-23.19,7.57s-27.12-35.2-35.66-62.78C611.9,423.87,626.53,378.76,647.59,388.21Z" transform="translate(-75.97 -125.94)"/><path class="cls-7" d="M715.13,493.66c-32,4.12-51.06,15.25-60.77,22.85-1.46-2-3.22-4.53-5.17-7.4a79.23,79.23,0,0,1,42.62-20.5c8.63-1.21,15.21-2,20.2-2.49C713.19,488.92,714.23,491.46,715.13,493.66Z" transform="translate(-75.97 -125.94)"/><path class="cls-7" d="M707.79,476.34q.83,1.86,1.59,3.63c-28.07-1.12-55,12.56-61.81,20.91-.8,1-1.5,1.84-2.13,2.61-.7-1.08-1.42-2.19-2.14-3.33,4.6-4.53,12.78-11.82,21.06-15.43C681.31,477.33,705.61,476.41,707.79,476.34Z" transform="translate(-75.97 -125.94)"/><polygon class="cls-2" points="443.57 452.76 479.42 452.76 484.74 385.84 437.76 385.84 443.57 452.76"/><path class="cls-3" d="M586.62,550.44c-9.93-.24-26.15-11.62-31.72-14.77s-37.06-9.93-38.51-6.54,26.4,10.41,26.4,10.41l-20.83,1s-6.05,9.2-6.54,15.26,1.94,14.77,1.94,14.77l9.2-8.23s7.51,4.11,17,9.68,26.39,2.18,33.66.73,24.22-6.78,24.22-6.78Z" transform="translate(-75.97 -125.94)"/><path class="cls-4" d="M716.43,547.29s-16.07-9.28-32.21-7c-9.25,1.29-10.26,2.8-9.69,2.42q-3-5.62-5.6-10.82C677.34,532.26,698.91,534.53,716.43,547.29Z" transform="translate(-75.97 -125.94)"/><path class="cls-8" d="M209.35,433.23V598.15c0,5.48,5.17,9.93,11.55,9.93h34.62c5.91,0,10.7,4.12,10.7,9.2H216.39c-10.73,0-19.42-7.48-19.42-16.71V433.23Z" transform="translate(-75.97 -125.94)"/><path class="cls-9" d="M234.68,574.47l5.5-1.05c3.63-.69,5.94-3.81,5.13-6.93l-43.09-167.4c-.8-3.13-4.43-5.11-8.06-4.42l-5.5,1c-3.62.7-5.94,3.81-5.13,6.94l43.09,167.4C227.43,573.17,231.05,575.16,234.68,574.47Z" transform="translate(-75.97 -125.94)"/><path class="cls-2" d="M233.18,574.76l.64-.13c2.81-.53,4.59-2.94,4-5.35L194,399.29c-.62-2.41-3.42-4-6.22-3.41l-.65.12c-2.8.53-4.59,2.94-4,5.35l43.75,170C227.57,573.75,230.38,575.29,233.18,574.76Z" transform="translate(-75.97 -125.94)"/><path class="cls-10" d="M118.46,626.84H858.68a6.21,6.21,0,0,0,0-12.41H118.46a6.21,6.21,0,0,0,0,12.41Z" transform="translate(-75.97 -125.94)"/><path class="cls-3" d="M582.79,267.75c33.54,20.81,12.31,43.31,21.23,81.94-5.48,1.88-11.46-8.91-15.29-17.4s-7.21-20.81-8.49-20.38-3.39,19.53-3.39,19.53l-5.1,2.54s-7.22-12.73-6.79-15.7,6.37-17.41-.85-24.2c-4.64-4.37-23.77,5.09-23.77,5.09L559,272.42Z" transform="translate(-75.97 -125.94)"/><path class="cls-11" d="M582.79,267.75c33.54,20.81,12.31,43.31,21.23,81.94-5.48,1.88-11.46-8.91-15.29-17.4s-7.21-20.81-8.49-20.38-3.39,19.53-3.39,19.53l-5.1,2.54s-7.22-12.73-6.79-15.7,6.37-17.41-.85-24.2c-4.64-4.37-23.77,5.09-23.77,5.09L559,272.42Z" transform="translate(-75.97 -125.94)"/><path class="cls-10" d="M509.34,290.25c1.7,20.38,33.29,14,48-4.24,14-17.41,25.53-5.41,39.48.42,23.35,9.77-3-46.7-50.1-37.78C511.35,255.34,508.21,276.69,509.34,290.25Z" transform="translate(-75.97 -125.94)"/><path class="cls-3" d="M579.56,311.9c-1.45,7.6,1.39,14.52,6.34,15.47s10.14-4.45,11.59-12.06-1.39-14.52-6.34-15.47S581,304.3,579.56,311.9Z" transform="translate(-75.97 -125.94)"/><rect class="cls-12" x="218.96" y="255.25" width="170.73" height="101.71" rx="3.39" transform="translate(532.69 486.28) rotate(-180)"/><rect class="cls-7" x="224.2" y="271.61" width="160.26" height="82.24" rx="2.96" transform="translate(532.69 499.52) rotate(-180)"/><rect class="cls-7" x="376.27" y="261" width="6.36" height="5.73" rx="1.38" transform="translate(682.94 401.78) rotate(-180)"/><rect class="cls-7" x="364.7" y="261" width="6.36" height="5.73" rx="1.38" transform="translate(659.8 401.78) rotate(-180)"/><rect class="cls-7" x="353.13" y="261" width="6.36" height="5.73" rx="1.38" transform="translate(636.66 401.78) rotate(-180)"/><path class="cls-12" d="M229.63,276.46H379V349H229.63Zm148.86.53H230.17v71.47H378.49Z" transform="translate(-75.97 -125.94)"/><rect class="cls-12" x="153.93" y="208.13" width="148.86" height="0.53"/><rect class="cls-12" x="153.93" y="193.72" width="148.86" height="0.53"/><rect class="cls-12" x="153.93" y="179.32" width="148.86" height="0.54"/><rect class="cls-12" x="153.93" y="164.92" width="148.86" height="0.53"/><rect class="cls-12" x="174.93" y="150.79" width="0.53" height="72.01"/><rect class="cls-12" x="196.19" y="150.79" width="0.53" height="72.01"/><rect class="cls-12" x="217.46" y="150.79" width="0.53" height="72.01"/><rect class="cls-12" x="238.72" y="150.79" width="0.54" height="72.01"/><rect class="cls-12" x="259.99" y="150.79" width="0.54" height="72.01"/><rect class="cls-12" x="281.26" y="150.79" width="0.53" height="72.01"/><path class="cls-13" d="M235.47,285.82h5a3.48,3.48,0,0,0,0-6.95h-5a3.48,3.48,0,0,0,0,6.95Z" transform="translate(-75.97 -125.94)"/><path class="cls-13" d="M233.65,307.94h8.64a1.66,1.66,0,0,1,1.66,1.66v3.63a1.65,1.65,0,0,1-1.65,1.65h-8.64a1.65,1.65,0,0,1-1.65-1.65v-3.63a1.65,1.65,0,0,1,1.65-1.65Z" transform="translate(399.97 496.88) rotate(-180)"/><rect class="cls-12" x="338.88" y="293.16" width="16.47" height="10.25" rx="2.36" transform="translate(618.25 470.64) rotate(-180)"/><rect class="cls-7" x="341.2" y="294.61" width="11.83" height="7.36" rx="1.7" transform="translate(618.25 470.64) rotate(-180)"/><rect class="cls-12" x="253.63" y="336.27" width="16.47" height="10.25" rx="2.36" transform="translate(447.76 556.86) rotate(-180)"/><rect class="cls-7" x="255.95" y="337.71" width="11.83" height="7.36" rx="1.7" transform="translate(447.76 556.86) rotate(-180)"/><path class="cls-12" d="M297.22,296.15h9.2a1.13,1.13,0,1,0,0-2.26h-9.2a1.13,1.13,0,0,0,0,2.26Z" transform="translate(-75.97 -125.94)"/><path class="cls-12" d="M297.22,299.7h9.2a1.13,1.13,0,0,0,0-2.26h-9.2a1.13,1.13,0,0,0,0,2.26Z" transform="translate(-75.97 -125.94)"/><path class="cls-12" d="M317.56,339h9.21a1.13,1.13,0,1,0,0-2.26h-9.21a1.13,1.13,0,1,0,0,2.26Z" transform="translate(-75.97 -125.94)"/><path class="cls-12" d="M317.56,342.57h9.21a1.13,1.13,0,0,0,0-2.26h-9.21a1.13,1.13,0,0,0,0,2.26Z" transform="translate(-75.97 -125.94)"/><path class="cls-12" d="M365.27,312.13h9.21a1.13,1.13,0,0,0,0-2.26h-9.21a1.13,1.13,0,0,0,0,2.26Z" transform="translate(-75.97 -125.94)"/><path class="cls-12" d="M365.27,315.69h9.21a1.13,1.13,0,0,0,0-2.26h-9.21a1.13,1.13,0,0,0,0,2.26Z" transform="translate(-75.97 -125.94)"/><path class="cls-12" d="M276.39,296.15h9.21a1.13,1.13,0,0,0,0-2.26h-9.21a1.13,1.13,0,0,0,0,2.26Z" transform="translate(-75.97 -125.94)"/><path class="cls-12" d="M276.39,299.7h9.21a1.13,1.13,0,0,0,0-2.26h-9.21a1.13,1.13,0,0,0,0,2.26Z" transform="translate(-75.97 -125.94)"/><rect class="cls-14" x="337.67" y="322.31" width="17.92" height="10.41" rx="2.14" transform="translate(617.28 529.09) rotate(-180)"/><path class="cls-7" d="M347.59,331h0a1.06,1.06,0,0,0,.76-.36l2.55-2.9a1.07,1.07,0,1,0-1.6-1.41l-1.81,2.05-4.64-4.55a1.07,1.07,0,0,0-1.5,1.53l5.45,5.34A1.09,1.09,0,0,0,347.59,331Z" transform="translate(-75.97 -125.94)"/><rect class="cls-14" x="273.97" y="278.47" width="17.92" height="10.41" rx="2.14" transform="translate(489.9 441.42) rotate(-180)"/><path class="cls-7" d="M283.9,287.17h0a1.11,1.11,0,0,0,.76-.37l2.55-2.89a1.07,1.07,0,0,0-1.61-1.42l-1.8,2.05L279.2,280a1.07,1.07,0,1,0-1.5,1.53l5.45,5.33A1.06,1.06,0,0,0,283.9,287.17Z" transform="translate(-75.97 -125.94)"/><path class="cls-12" d="M278.57,327.15a4.85,4.85,0,1,0,4.85-4.84A4.85,4.85,0,0,0,278.57,327.15Z" transform="translate(-75.97 -125.94)"/><path class="cls-12" d="M341.3,341.92a4.84,4.84,0,1,0,4.84-4.84A4.84,4.84,0,0,0,341.3,341.92Z" transform="translate(-75.97 -125.94)"/><rect class="cls-12" x="235.57" y="216.31" width="102.23" height="58.46" rx="1.68"/><rect class="cls-7" x="237.81" y="218.88" width="97.75" height="53.31" rx="1.57"/><rect class="cls-12" x="240.51" y="222.15" width="92.34" height="46.77" rx="1.76"/><circle class="cls-7" cx="286.68" cy="245.53" r="16.23"/><path class="cls-12" d="M348.67,371.47a14,14,0,1,0,14-14A14,14,0,0,0,348.67,371.47Z" transform="translate(-75.97 -125.94)"/><polygon class="cls-7" points="279.79 244.79 284.9 247.74 290.01 250.69 290.01 244.79 290.01 238.89 284.9 241.84 279.79 244.79"/><path class="cls-12" d="M420.25,202.19h63.93a2.91,2.91,0,0,0,0-5.82H420.25a2.91,2.91,0,0,0,0,5.82Z" transform="translate(-75.97 -125.94)"/><path class="cls-12" d="M253.15,447.75h63.93a2.91,2.91,0,1,0,0-5.81H253.15a2.91,2.91,0,1,0,0,5.81Z" transform="translate(-75.97 -125.94)"/><path class="cls-12" d="M253.15,458.41h63.93a2.91,2.91,0,1,0,0-5.81H253.15a2.91,2.91,0,1,0,0,5.81Z" transform="translate(-75.97 -125.94)"/><path class="cls-12" d="M253.15,470h63.93a2.91,2.91,0,1,0,0-5.81H253.15a2.91,2.91,0,1,0,0,5.81Z" transform="translate(-75.97 -125.94)"/><path class="cls-12" d="M379.08,213.33h105.1a2.91,2.91,0,0,0,0-5.82H379.08a2.91,2.91,0,1,0,0,5.82Z" transform="translate(-75.97 -125.94)"/><path class="cls-15" d="M832.85,374.4c16.71,15.25,9.44,30.51-2.91,58.84s-14.53,133-14.53,133l10.18-1.45s-1.46-107.52,12.35-136.58,19.61-43.59,32-34.15S832.85,374.4,832.85,374.4Z" transform="translate(-75.97 -125.94)"/><path class="cls-14" d="M823.67,354.65c2-9,14.08-18.83,30.2-27.13-2.4,13.34-10.08,35.14-2.13,39.61,10.72,6,1-24.41,5.18-41.14A198.91,198.91,0,0,1,907,309.56a1.34,1.34,0,0,1-.07.18c-9.44,24-21.79,33.42-16.71,37.05,3.83,2.73,16.29-25,32.75-39.15,12.35-.66,22.8,1,29,5.91,9.55,7.56,16,14.27,6.36,37.3a43.15,43.15,0,0,1-20.86,7.57c-21.8,2.17-32,2.9-16.71,10.17,7.47,3.55,20-.2,30.14-2.49-3.29,6.07-7.34,12.93-12.26,20.76a77.08,77.08,0,0,1-10.21,13c-7,1.35-13.15,1.37-16.39,0-10.17-4.35-36.33-18.16-42.86-12.34s48.43,9.29,44.63,23.74c-26.58,15.32-57,8-62.37-6C844.22,386.3,817.56,381.86,823.67,354.65Z" transform="translate(-75.97 -125.94)"/><path class="cls-15" d="M878.62,457.94c-29.06-21.79-58.85-1.45-74.1,21.8s-4.36,75.55-4.36,75.55,5.81,0,5.81-2.17-16-61.76,21.79-88.64c23.64-16.81,40.69-8.71,42.87-.72s-9.45,22.52-9.45,22.52Z" transform="translate(-75.97 -125.94)"/><path class="cls-14" d="M811.78,413.14c29.06,0,38.51,45.05,30.51,71.2s-18.88,74.83-18.88,74.83l-7.27-7.27s27.61-68.29,21.07-98.8-22.52-35.6-25.43-35.6S811.78,413.14,811.78,413.14Z" transform="translate(-75.97 -125.94)"/><path class="cls-15" d="M836.15,484.54a21.25,21.25,0,0,1,7.65-6.43,55.08,55.08,0,0,1-1.51,6.23c-3.64,11.92-7.88,28.51-11.42,43-.32-1.86-.82-4.73-1.59-9.15-.18-1.05-.32-2.18-.42-3.38A278.75,278.75,0,0,0,836.15,484.54Z" transform="translate(-75.97 -125.94)"/><path class="cls-14" d="M844.1,484.76c55.21-23.25,26.12-55.15,74.8-34.08,3.43,1.48,7.61,5.23,11.79,10.39a36.17,36.17,0,0,1-15.42,1.23c-14.53-2.18-9.45,9.45,14.53,12.35A54.45,54.45,0,0,1,941,477c11.42,21.94,16.57,50.81-7.6,60.84a54.58,54.58,0,0,1-17.2,3.53c-7.46-5.93,1.82-40.23-9.68-35.5-11,4.55,3.46,29.41,1.47,35.67a159.14,159.14,0,0,1-34.49-4.83c-4.56-2.56-8-6-9.12-10.5-3.63-15.25,20.34-24.69,21.07-37.77.67-12-8.79,26.45-33.84,32.11C829,510,818.29,495.63,844.1,484.76Z" transform="translate(-75.97 -125.94)"/><path class="cls-14" d="M804.76,443.66c5.81-12.35-9.45-15.26-8.72-5.81.64,8.36.72,28.71-7.87,34.25-14.8-1.61-34.94-7.57-50.16-16.67a6.14,6.14,0,0,1,.64-3.78c6.54-13.08,48.67-24,35.6-28.33-10.42-3.48-28.67,17-43.37,27.34C722,444,716.13,436,716.13,427.05c0-12.07,14.66-25.73,33.63-32.26,8.53.86,16.46,5.52,28.85,12.54,18.29,10.37,14.06-6.39-3.24-16.34,14.93.77,29.82,7.15,40.8,22.39,0,0-1,6.52,5.86,16.6,18.81,27.49-2.9,43.54-28.85,42.5C794.65,465.23,800.74,452.19,804.76,443.66Z" transform="translate(-75.97 -125.94)"/><path class="cls-15" d="M876.87,456.71c14.21,11,30,23.82,49.36,32.54s15.5,37.13,15.5,37.13,2.91-24.54-13.24-32.94-26.8-18.4-39.07-20.34a179.42,179.42,0,0,1-19-3.87s3.88-7.75,1.62-10.66S876.87,456.71,876.87,456.71Z" transform="translate(-75.97 -125.94)"/><path class="cls-15" d="M946.9,327.79c-52,13.89-90.09,47.15-97.19,55.22s-7.11,10.33-7.11,10.33l5.49,10.34,2.59-1.3s-4.2-8.71,6.78-20c18.93-19.48,42-34.87,57.8-41.65S946.9,327.79,946.9,327.79Z" transform="translate(-75.97 -125.94)"/><path class="cls-13" d="M803.4,544.35h19.86a25.57,25.57,0,0,1,25.57,25.57v45.63a0,0,0,0,1,0,0h-71a0,0,0,0,1,0,0V569.92A25.57,25.57,0,0,1,803.4,544.35Z" transform="translate(1550.69 1033.97) rotate(-180)"/></svg>